<?xml version="1.0" encoding="UTF-8"?>
<svg width="50px" height="50px" viewBox="0 0 50 50" version="1.1" xmlns="http://www.w3.org/2000/svg" xmlns:xlink="http://www.w3.org/1999/xlink">
    <title>Group 19</title>
    <g id="Page-1" stroke="none" stroke-width="1" fill="none" fill-rule="evenodd">
        <g id="Group-19">
            <rect id="Rectangle" fill-opacity="0" fill="#FFFFFF" x="0" y="0" width="50" height="50"></rect>
            <g id="Group-18" transform="translate(1.000000, 0.000000)" fill="#8B7B63">
                <path d="M22.9864406,0 C28.0946804,0 35.9929501,1.66779543 41.0795054,6.01364176 L26.1370585,30.9456839 C22.7674485,30.8797135 20.3115977,30.6361333 19.6020967,33.4426946 C18.89427,36.2426328 19.3197768,39.1648344 20.878617,42.2092994 C19.6020967,44.1845475 13.4285595,45.7752665 6.4645686,39.8550469 C3.46487542,37.3049513 0,29.5353853 0,20.811348 C0,15.4737629 2.83341175,9.35846223 6.4645686,6.05558644 C10.0957254,2.75271066 14.7446642,0 22.9864406,0 Z M45.9730725,17.2676296 C45.6044447,23.5390282 42.4754025,27.671104 36.5859459,29.6638569 C36.9351681,29.5221217 36.8459899,29.4914912 36.3184112,29.5719655 L45.0244403,11.2970444 C45.7477182,13.0439911 46.1047856,15.0268178 45.9730725,17.2676296 Z M9.3108559,17.5308183 C6.76873984,17.5308183 4.7079476,19.6176647 4.7079476,22.1919202 C4.7079476,24.7661756 6.76873984,26.853022 9.3108559,26.853022 C11.852972,26.853022 13.9137642,24.7661756 13.9137642,22.1919202 C13.9137642,19.6176647 11.852972,17.5308183 9.3108559,17.5308183 Z M13.9137642,5.34024422 C11.3716481,5.34024422 9.3108559,7.4270906 9.3108559,10.0013461 C9.3108559,12.5756015 11.3716481,14.6624479 13.9137642,14.6624479 C16.4558803,14.6624479 18.5166725,12.5756015 18.5166725,10.0013461 C18.5166725,7.4270906 16.4558803,5.34024422 13.9137642,5.34024422 Z M27.0143494,3.54751273 C24.4722333,3.54751273 22.4114411,5.63435912 22.4114411,8.20861459 C22.4114411,10.7828701 24.4722333,12.8697164 27.0143494,12.8697164 C29.5564654,12.8697164 31.6172577,10.7828701 31.6172577,8.20861459 C31.6172577,5.63435912 29.5564654,3.54751273 27.0143494,3.54751273 Z" id="Path-21"></path>
                <path d="M28.1014763,29.9477782 L33.4104763,32.7477782 L33.1920507,33.2144305 C32.7219662,34.2139775 31.5305944,34.6431917 30.5310473,34.1731071 C30.4922614,34.1548662 30.4540719,34.1353832 30.416538,34.1146883 L28.6179435,33.1230058 C27.6506603,32.5896795 27.2988687,31.3731951 27.8321951,30.4059119 C27.8419948,30.3881383 27.8520645,30.3705149 27.8624007,30.3530479 L28.1014763,29.9477782 Z M46.2049809,2.17286322 C46.9163286,2.54570249 47.2077148,3.41273813 46.8659156,4.13951043 L34.2984763,30.8597782 L29.0684763,28.3157782 L44.2012277,2.74221974 C44.6111912,2.0494264 45.4919765,1.79915562 46.2049809,2.17286322 Z" id="Path-25"></path>
                <path d="M27.2580113,33.5640792 L29.9133908,34.9677899 C30.6164546,35.3399948 31.0323477,36.0933371 30.9722787,36.8865753 C30.8102684,39.0037104 29.9381375,41.2094976 28.3558861,43.5039368 C27.1191946,45.2972759 25.6638073,46.8328274 23.9897239,48.1105914 L23.9910015,48.1122748 C23.5510541,48.4461381 22.9237565,48.36014 22.5898932,47.9201926 C22.3889577,47.6554104 22.3327204,47.3080928 22.4398331,46.9934318 C23.1587169,44.8891306 23.3011726,42.7216342 22.8688482,40.4915035 C22.3206946,37.6638722 23.050678,35.4284017 25.0587983,33.785092 C25.680313,33.2748736 26.5471323,33.1882443 27.2580113,33.5640792 Z" id="Path-23"></path>
            </g>
        </g>
    </g>
</svg>