<?xml version="1.0" encoding="UTF-8"?>
<svg width="310px" height="156px" viewBox="0 0 310 156" version="1.1" xmlns="http://www.w3.org/2000/svg" xmlns:xlink="http://www.w3.org/1999/xlink">
    <title>Group 16</title>
    <g id="Page-1" stroke="none" stroke-width="1" fill="none" fill-rule="evenodd">
        <g id="Group-16" transform="translate(3.000000, 3.000000)">
            <rect id="Rectangle" stroke="#8B7A66" stroke-width="5" fill="#FAF6CB" x="0" y="0" width="304" height="150" rx="75"></rect>
            <path d="M117.699382,32.2288503 L66.9624455,72.2434238 C65.6614992,73.2694379 65.4386226,75.1558119 66.4646366,76.4567582 C66.6104603,76.6416569 66.7775467,76.8087434 66.9624455,76.954567 L117.699382,116.96914 C119.000329,117.995154 120.886703,117.772278 121.912717,116.471332 C122.330135,115.942061 122.557145,115.287636 122.557145,114.613569 L122.557145,89.6244635 C122.557145,87.9676093 123.900291,86.6244635 125.557145,86.6244635 C125.703707,86.6244635 125.850072,86.6352037 125.995063,86.6565977 L236.537753,102.967535 C238.17686,103.20939 239.701682,102.076694 239.943537,100.437587 C239.964931,100.292595 239.975671,100.146231 239.975671,99.9996689 L239.975671,49.1983219 C239.975671,47.5414677 238.632526,46.1983219 236.975671,46.1983219 C236.82911,46.1983219 236.682745,46.2090621 236.537753,46.2304561 L125.995063,62.5413931 C124.355956,62.7832487 122.831135,61.6505526 122.589279,60.0114456 C122.567885,59.8664537 122.557145,59.720089 122.557145,59.5735273 L122.557145,34.5844219 C122.557145,32.9275677 121.213999,31.5844219 119.557145,31.5844219 C118.883078,31.5844219 118.228653,31.8114317 117.699382,32.2288503 Z" id="Path-19" fill="#8B7A66"></path>
        </g>
    </g>
</svg>