<?xml version="1.0" encoding="UTF-8"?>
<svg width="51px" height="50px" viewBox="0 0 51 50" version="1.1" xmlns="http://www.w3.org/2000/svg" xmlns:xlink="http://www.w3.org/1999/xlink">
    <title>bugsIcon</title>
    <g id="Page-1" stroke="none" stroke-width="1" fill="none" fill-rule="evenodd">
        <g id="bugsIcon">
            <rect id="Rectangle-Copy-8" fill-opacity="0" fill="#FFFFFF" x="0" y="0" width="50" height="50"></rect>
            <path d="M22.1327603,18.3866162 C18.4053342,15.1368722 15.3183522,13.3479383 12.8718144,13.0198144 C9.20200764,12.5276287 5.23734412,13.8443369 3.61086846,15.902504 C1.9843928,17.9606711 -0.385715559,20.5523787 1.9843928,26.7969238 C3.56446504,30.9599539 6.79958374,34.4236461 11.6897489,37.1880005 C10.1986748,39.8256407 9.44367923,41.8884312 9.42476211,43.3763721 C9.39638644,45.6082834 10.3432353,47.3972407 11.6897489,48.0682739 C14.0616542,49.2503098 17.6047417,48.7303287 19.5092983,47.860294 C21.2054483,47.0854631 23.4386973,44.7666307 26.2090454,40.9037967 C27.1828199,43.2010857 28.5963494,45.0255582 30.4496339,46.3772141 C33.2295605,48.404698 35.0235826,48.8226695 36.9390394,48.8226695 C38.8544962,48.8226695 40.6981269,48.5085447 41.777485,44.9363601 C42.4970571,42.5549037 42.2209266,39.8320358 40.9490935,36.7677564 C45.6842999,33.3938214 48.733255,29.8405235 50.095959,26.1078625 C52.1400149,20.5088711 50.2083288,16.903853 48.7406036,15.425582 C47.2728783,13.947311 45.2229727,12.8530882 40.3196691,13.6713603 C37.0508,14.216875 33.9433439,15.788627 30.9973006,18.3866162 C31.0860948,15.6956182 31.7943809,13.6824682 33.122159,12.3471663 C35.1138262,10.3442135 38.4273575,10.4252754 39.0438697,10.0982007 C39.6603819,9.77112601 40.3196691,8.34729302 39.0438697,7.58552022 C37.7680703,6.82374743 33.4421412,6.36514504 30.1586712,9.18854822 C27.9696912,11.070817 26.9561338,13.9047509 27.117999,17.6903499 C26.5120299,17.6903499 26.2090454,17.6903499 26.2090454,17.6903499 C26.2090454,17.6903499 24.7851961,10.5831913 20.3394524,7.58552022 C18.4979651,6.34384419 13.7929434,7.17897983 13.3156985,7.58552022 C12.8384535,7.99206062 12.3945695,8.67090237 12.8718144,9.82172655 C13.3490593,10.9725507 16.727099,9.7784693 19.1872217,12.0536882 C20.8273034,13.5705007 21.8091496,15.6814767 22.1327603,18.3866162 Z" id="Path" fill="#8B7B63"></path>
        </g>
    </g>
</svg>