<?xml version="1.0" encoding="UTF-8"?>
<svg width="50px" height="50px" viewBox="0 0 50 50" version="1.1" xmlns="http://www.w3.org/2000/svg" xmlns:xlink="http://www.w3.org/1999/xlink">
    <title>fishIcon</title>
    <g id="Page-1" stroke="none" stroke-width="1" fill="none" fill-rule="evenodd">
        <g id="fishIcon">
            <rect id="Rectangle" fill-opacity="0" fill="#FFFFFF" x="0" y="0" width="50" height="50"></rect>
            <g id="Group" transform="translate(0.000000, 12.000000)" fill="#8B7B63">
                <path d="M19.7128214,0 C30.3965115,0.810155089 36.9268898,3.38786768 39.3039564,7.73313776 C40.6147187,6.1605847 42.2041483,4.76084812 44.0722452,3.53392802 C45.9403422,2.30700793 47.9162604,1.69354788 50,1.69354788 C47.1117323,5.52627792 45.6675984,9.28762753 45.6675984,12.9775967 C45.6675984,16.6675659 47.1117323,20.3561065 50,24.0432185 C48.1062126,23.9229446 46.1302943,23.2431054 44.0722452,22.0037011 C42.0141962,20.7642967 40.4247665,19.2970017 39.3039564,17.6018159 C35.4187491,23.2006053 28.6666851,26 19.0477644,26 C5.03267177,25.0915746 -0.950026348,15.4179892 0.121686421,9.64059045 C0.121686421,7.98655418 3.93672938,0 19.7128214,0 Z M8.5165688,5.34087968 C6.35960382,5.34087968 4.61103822,7.06215878 4.61103822,9.18546415 C4.61103822,11.3087695 6.35960382,13.0300486 8.5165688,13.0300486 C10.6735338,13.0300486 12.4220994,11.3087695 12.4220994,9.18546415 C12.4220994,7.06215878 10.6735338,5.34087968 8.5165688,5.34087968 Z" id="Path-3"></path>
            </g>
        </g>
    </g>
</svg>