<?xml version="1.0" encoding="UTF-8"?>
<svg width="50px" height="50px" viewBox="0 0 50 50" version="1.1" xmlns="http://www.w3.org/2000/svg" xmlns:xlink="http://www.w3.org/1999/xlink">
    <title>fossilsIcon</title>
    <g id="Page-1" stroke="none" stroke-width="1" fill="none" fill-rule="evenodd">
        <g id="fossilsIcon">
            <rect id="Rectangle-Copy-10" fill-opacity="0" fill="#FFFFFF" x="0" y="0" width="50" height="50"></rect>
            <path d="M41.4188916,22.5354045 C41.9068051,21.6539681 45.0132312,22.0110938 45.3834672,22.5354045 C45.8021352,23.1283026 46.0400155,24.1781201 46.0971081,25.684857 C47.6868687,25.7898587 48.8537355,26.3143095 49.5977084,27.2582094 C50.9995726,30.5786598 48.4723992,33.1855004 46.0971081,32.5374423 C45.1906055,32.3232177 44.241817,31.2785243 43.2507428,29.4033619 L43.2507428,29.4033619 L24.0245035,43.1322999 C24.6598548,45.107169 24.6598548,46.6497068 24.0245035,47.7599132 C23.0714765,49.4252228 18.4931615,49.401459 17.6305335,47.7599132 C17.0554481,46.6655493 17.4978412,44.9450266 18.9577127,42.5983452 C16.0106187,42.1088737 14.3844152,41.37323 14.0791022,40.3914142 C13.6211328,38.9186905 15.2205441,37.1610791 17.1009321,36.6273691 C18.3545242,36.2715625 19.5318647,36.9061849 20.6329539,38.5312364 L20.6329539,38.5312364 L41.9068051,26.2645547 C41.2562537,24.3660788 41.0936159,23.1230288 41.4188916,22.5354045 Z M27.2778865,2 C36.6900153,2 39.1554948,8.68776772 41.3864828,13.408945 C42.8738082,16.5563966 41.6568857,20.2538806 37.7357154,24.5013972 C38.6829955,26.3731 37.3315679,27.9732868 33.6814327,29.3019576 C28.2062298,31.2949638 27.2778865,30.7687273 20.6932414,30.7687273 C14.1085964,30.7687273 11.2850511,34.8889506 6.40043572,33.824227 C1.68741781,31.6323332 0,23.1414553 0,19.5251138 C0,17.1142195 3.31702072,14.6935597 9.95106216,12.2631345 C15.2275258,5.42104484 21.0031339,2 27.2778865,2 Z M7.65264145,19 C5.68574902,19 4.81267172,19.9610884 5.03340958,21.8832653 C5.87599192,23.9610884 7.20375699,25 9.01670479,25 C10.8296526,25 12.1574177,23.6147348 13,20.8442044 C11.4019867,19.6147348 9.61953389,19 7.65264145,19 Z M16,16.1563058 C16.4458773,20.0521019 19.1108805,22 23.9950097,22 C28.8791388,22 32.1651938,20.8424175 33.8531747,18.5272524 C34.641975,14.2622352 32.2524788,11.5333899 26.6846863,10.3407164 C21.1168937,9.14804302 17.5553316,11.0865728 16,16.1563058 Z" id="Path-8" fill="#8B7B63"></path>
        </g>
    </g>
</svg>