<?xml version="1.0" encoding="UTF-8"?>
<svg width="50px" height="51px" viewBox="0 0 50 51" version="1.1" xmlns="http://www.w3.org/2000/svg" xmlns:xlink="http://www.w3.org/1999/xlink">
    <title>musicIcon</title>
    <g id="Page-1" stroke="none" stroke-width="1" fill="none" fill-rule="evenodd">
        <g id="musicIcon" transform="translate(0.000000, 0.814017)">
            <rect id="Rectangle-Copy-9" fill-opacity="0" fill="#FFFFFF" x="0" y="0.185983274" width="50" height="50"></rect>
            <path d="M21.127577,30.3141223 L21.127577,6.68672108 C21.1285645,5.02986712 22.47251,3.68752169 24.129364,3.68850865 C24.8682063,3.68894876 25.5809016,3.96202032 26.1316508,4.45452898 C36.5135017,13.7412554 42.3509987,19.2812806 43.644142,21.0746046 C44.8718538,23.233392 44.0918894,27.3767508 42.9867068,30.3141223 C42.2499184,32.27237 40.0169485,34.0662347 36.287797,35.6957165 C37.3815951,32.9333613 37.6642701,30.803284 37.1358219,29.3054844 C35.4373909,26.1372781 32.8480633,23.3936515 29.3678391,21.0746046 L29.3678391,40.7335341 C26.4249935,46.911178 22.0629146,50 16.2816024,50 C7.60963413,50 5.45459196,44.0135085 5.45459196,42.0244015 C5.45459196,40.0352945 5.88101659,35.3497225 10.057218,32.5976088 C12.8413522,30.7628663 16.5314719,30.0017041 21.127577,30.3141223 Z" id="Path-12" fill="#8B7B63"></path>
        </g>
    </g>
</svg>