<?xml version="1.0" encoding="UTF-8"?>
<svg width="50px" height="50px" viewBox="0 0 50 50" version="1.1" xmlns="http://www.w3.org/2000/svg" xmlns:xlink="http://www.w3.org/1999/xlink">
    <title>seaIcon</title>
    <g id="Page-1" stroke="none" stroke-width="1" fill="none" fill-rule="evenodd">
        <g id="seaIcon">
            <rect id="Rectangle-Copy-7" fill-opacity="0" fill="#FFFFFF" x="0" y="0" width="50" height="50"></rect>
            <path d="M26.2048061,0 C36.5956325,2.4406083 42.0748944,7.46409573 42.6425921,15.0704623 C42.6425921,20.7048106 40.3265111,25.728298 35.6943493,30.1409246 C41.2314498,32.4389304 44,35.276364 44,38.6532255 C44,42.030087 42.1131891,44.9588815 38.3395672,47.439609 C37.3754439,46.0383369 37.3754439,44.1840318 38.3395672,41.8766937 C37.6049358,40.1096939 35.8017983,38.7199124 32.9301547,37.7073492 C34.1655552,40.8500524 34.1655552,43.4871583 32.9301547,45.6186668 C31.6947542,47.7501754 29.7585849,49.2106198 27.121647,50 C27.4039582,46.4372963 27.4039582,43.9236398 27.121647,42.4590304 C26.8393357,40.994421 26.1102854,39.7258194 24.9344959,38.6532255 C23.6684983,39.7258194 22.7861063,40.8003088 22.28732,41.8766937 C21.7885336,42.9530786 21.7885336,45.6608473 22.28732,50 C19.4500749,49.6532446 17.427413,48.5519826 16.2193344,46.696214 C15.0112557,44.8404454 14.6792497,42.1594492 15.2233163,38.6532255 C13.4130957,38.4480486 12.1656494,39.0812044 11.4809773,40.5526931 C10.7963053,42.0241817 10.7963053,44.3198204 11.4809773,47.439609 C7.16032578,45.4502981 5,42.5215036 5,38.6532255 C5,34.7849474 7.69247998,31.9475138 13.0774399,30.1409246 C8.27180785,25.5396153 5.86899181,20.7198678 5.86899181,15.6816821 C6.64205445,5.75750459 13.4206592,0.530277225 26.2048061,0 Z M30,27 C28.3431458,27 27,28.3431458 27,30 C27,31.6568542 28.3431458,33 30,33 C31.6568542,33 33,31.6568542 33,30 C33,28.3431458 31.6568542,27 30,27 Z M18,27 C16.3431458,27 15,28.3431458 15,30 C15,31.6568542 16.3431458,33 18,33 C19.6568542,33 21,31.6568542 21,30 C21,28.3431458 19.6568542,27 18,27 Z" id="Path-5" fill="#8B7B63"></path>
        </g>
    </g>
</svg>