<?xml version="1.0" encoding="UTF-8"?>
<svg width="52px" height="52px" viewBox="0 0 52 52" version="1.1" xmlns="http://www.w3.org/2000/svg" xmlns:xlink="http://www.w3.org/1999/xlink">
    <title>Group 28 Copy 2</title>
    <g id="Page-1" stroke="none" stroke-width="1" fill="none" fill-rule="evenodd">
        <g id="Group-28-Copy" transform="translate(1.000000, 1.000000)">
            <circle id="Oval-Copy-6" stroke="#8B7A66" stroke-width="2" fill="#FEF8E4" cx="25" cy="25" r="25"></circle>
            <path d="M21.55,40 L20.8,35.275 C20.325,35.1 19.825,34.8625 19.3,34.5625 C18.775,34.2625 18.3125,33.95 17.9125,33.625 L13.4875,35.65 L10,29.5 L14.05,26.5375 C14,26.3125 13.96875,26.05625 13.95625,25.76875 C13.94375,25.48125 13.9375,25.225 13.9375,25 C13.9375,24.775 13.94375,24.51875 13.95625,24.23125 C13.96875,23.94375 14,23.6875 14.05,23.4625 L10,20.5 L13.4875,14.35 L17.9125,16.375 C18.3125,16.05 18.775,15.7375 19.3,15.4375 C19.825,15.1375 20.325,14.9125 20.8,14.7625 L21.55,10 L28.45,10 L29.2,14.725 C29.675,14.9 30.18125,15.13125 30.71875,15.41875 C31.25625,15.70625 31.7125,16.025 32.0875,16.375 L36.5125,14.35 L40,20.5 L35.95,23.3875 C36,23.6375 36.03125,23.90625 36.04375,24.19375 C36.05625,24.48125 36.0625,24.75 36.0625,25 C36.0625,25.25 36.05625,25.5125 36.04375,25.7875 C36.03125,26.0625 36,26.325 35.95,26.575 L40,29.5 L36.5125,35.65 L32.0875,33.625 C31.6875,33.95 31.23125,34.26875 30.71875,34.58125 C30.20625,34.89375 29.7,35.125 29.2,35.275 L28.45,40 L21.55,40 Z M25,30 C26.3846154,30 27.5641026,29.5128205 28.5384615,28.5384615 C29.5128205,27.5641026 30,26.3846154 30,25 C30,23.6153846 29.5128205,22.4358974 28.5384615,21.4615385 C27.5641026,20.4871795 26.3846154,20 25,20 C23.6153846,20 22.4358974,20.4871795 21.4615385,21.4615385 C20.4871795,22.4358974 20,23.6153846 20,25 C20,26.3846154 20.4871795,27.5641026 21.4615385,28.5384615 C22.4358974,29.5128205 23.6153846,30 25,30 Z" id="Shape" fill="#8B7A66" fill-rule="nonzero"></path>
        </g>
    </g>
</svg>