<svg width="75" height="75" viewBox="0 0 75 75" fill="none" xmlns="http://www.w3.org/2000/svg">
<mask id="mask0_99_430" style="mask-type:alpha" maskUnits="userSpaceOnUse" x="0" y="0" width="75" height="75">
<path d="M37.5 75C58.2107 75 75 58.2107 75 37.5C75 16.7893 58.2107 0 37.5 0C16.7893 0 0 16.7893 0 37.5C0 58.2107 16.7893 75 37.5 75Z" fill="white"/>
</mask>
<g mask="url(#mask0_99_430)">
<path d="M37.5 75C58.2107 75 75 58.2107 75 37.5C75 16.7893 58.2107 0 37.5 0C16.7893 0 0 16.7893 0 37.5C0 58.2107 16.7893 75 37.5 75Z" fill="#F7F4E4" stroke="#8B7A66" stroke-width="4"/>
<path fill-rule="evenodd" clip-rule="evenodd" d="M58.6029 19.9997C63.5572 25.0488 62.1573 29.2654 54.4033 32.6496C58.6166 41.805 59.0652 48.8301 55.749 53.725C53.1589 57.548 47.1278 59.4595 37.6556 59.4595C28.0242 59.8272 21.6835 57.6937 18.6336 53.0592C15.5837 48.4246 16.0434 41.6214 20.0128 32.6496C12.8329 28.8263 11.5895 24.6097 16.2827 19.9997C20.9759 15.3897 25.1066 16.7146 28.6748 23.9746C31.7747 22.5841 34.7683 21.8889 37.6556 21.8889C40.543 21.8889 43.4182 22.5841 46.2813 23.9746C49.5414 16.2755 53.6486 14.9506 58.6029 19.9997ZM35.5765 47.4817C35.2813 47.9248 35.8405 48.7642 37.2542 50C38.6478 48.7341 39.2071 47.8947 38.932 47.4817C38.5193 46.8622 36.0193 46.817 35.5765 47.4817ZM28.5 36C26.2909 36 24.5 37.7909 24.5 40C24.5 42.2091 26.2909 44 28.5 44C30.7091 44 32.5 42.2091 32.5 40C32.5 37.7909 30.7091 36 28.5 36ZM45.5 36C43.2909 36 41.5 37.7909 41.5 40C41.5 42.2091 43.2909 44 45.5 44C47.7091 44 49.5 42.2091 49.5 40C49.5 37.7909 47.7091 36 45.5 36Z" fill="#8B7A66"/>
<path fill-rule="evenodd" clip-rule="evenodd" d="M28.4127 58.4994C26.054 58.0281 23.5614 59.1058 20.9348 61.7323C18.3082 64.3589 16.9673 67.1148 16.9121 70L37.4999 78.1414L56.9566 70C56.0673 66.8237 54.4549 64.0678 52.1194 61.7323C49.7839 59.3968 47.5627 58.3192 45.456 58.4994H28.4127Z" fill="#8B7A66"/>
</g>
</svg>
