<?xml version="1.0" encoding="UTF-8"?>
<svg width="168px" height="168px" viewBox="0 0 168 168" version="1.1" xmlns="http://www.w3.org/2000/svg" xmlns:xlink="http://www.w3.org/1999/xlink">
    <title>Group 30</title>
    <g id="Page-1" stroke="none" stroke-width="1" fill="none" fill-rule="evenodd">
        <g id="Group-30" transform="translate(1.000000, 1.000000)">
            <rect id="Rectangle" stroke="#8B7B63" stroke-width="2" fill="#F7F4E4" x="0" y="0" width="166" height="166" rx="36"></rect>
            <circle id="Oval" fill="#8B7B63" cx="83" cy="83" r="55"></circle>
            <circle id="Oval-Copy-7" fill="#F7F4E4" cx="83" cy="83" r="22"></circle>
            <path d="M83,44 C61.4608948,44 44,61.4608948 44,83" id="Oval-Copy-9" stroke="#F7F4E4" stroke-width="2" stroke-linecap="round"></path>
            <path d="M83,53 C66.4314575,53 53,66.4314575 53,83" id="Oval-Copy-11" stroke="#F7F4E4" stroke-width="2" stroke-linecap="round"></path>
            <path d="M83,35 C56.490332,35 35,56.490332 35,83" id="Oval-Copy-12" stroke="#F7F4E4" stroke-width="2" stroke-linecap="round"></path>
            <path d="M120.75,86 C101.00582,86 85,102.00582 85,121.75" id="Oval-Copy-10" stroke="#F7F4E4" stroke-width="2" stroke-linecap="round" transform="translate(102.875000, 103.875000) scale(-1, -1) translate(-102.875000, -103.875000) "></path>
            <path d="M112.5,86 C97.3121694,86 85,98.3121694 85,113.5" id="Oval-Copy-14" stroke="#F7F4E4" stroke-width="2" stroke-linecap="round" transform="translate(98.750000, 99.750000) scale(-1, -1) translate(-98.750000, -99.750000) "></path>
            <path d="M129,86 C104.699471,86 85,105.699471 85,130" id="Oval-Copy-13" stroke="#F7F4E4" stroke-width="2" stroke-linecap="round" transform="translate(107.000000, 108.000000) scale(-1, -1) translate(-107.000000, -108.000000) "></path>
            <circle id="Oval-Copy-8" fill="#8B7B63" cx="83" cy="83" r="4"></circle>
        </g>
    </g>
</svg>